<svg width="21" height="20" viewBox="0 0 21 20" fill="none" xmlns="http://www.w3.org/2000/svg">
<path d="M17.9912 3.85071C18.0092 3.57516 17.8005 3.33715 17.5249 3.31911L13.0345 3.02515C12.759 3.00711 12.521 3.21586 12.5029 3.49142C12.4849 3.76697 12.6937 4.00497 12.9692 4.02301L16.9607 4.28431L16.6994 8.27577C16.6813 8.55132 16.8901 8.78933 17.1656 8.80737C17.4412 8.8254 17.6792 8.61665 17.6972 8.3411L17.9912 3.85071ZM13.5167 7.97013L17.822 4.19394L17.1626 3.44215L12.8573 7.21834L13.5167 7.97013Z" fill="white"/>
<path d="M3.46726 16.5896C3.19171 16.5715 2.98295 16.3335 3.00099 16.058L3.29496 11.5676C3.313 11.292 3.551 11.0833 3.82655 11.1013C4.10211 11.1194 4.31086 11.3574 4.29282 11.6329L4.03152 15.6244L8.02298 15.8857C8.29853 15.9037 8.50729 16.1417 8.48925 16.4173C8.47121 16.6928 8.2332 16.9016 7.95765 16.8835L3.46726 16.5896ZM8.13488 12.6903L3.82963 16.4665L3.17022 15.7148L7.47547 11.9386L8.13488 12.6903Z" fill="white"/>
</svg>
