<svg width="127" height="15" viewBox="0 0 127 15" fill="none" xmlns="http://www.w3.org/2000/svg">
<path d="M10.0217 4.91402C9.69676 2.65979 7.62464 2.62292 6.85246 2.62292C6.08027 2.62292 3.61927 2.75723 3.61927 7.2657C3.61927 9.80961 4.83866 11.632 7.11078 11.632C9.33289 11.632 9.93564 10.1072 10.0995 9.10648H13.4327C13.2216 11.1421 12.0133 14.2654 6.97467 14.2654C3.33595 14.2654 0 12.6063 0 7.3052C0 0.28968 4.88866 0 6.38581 0C8.0524 0 9.53566 0.481922 10.3467 1.5432V0.384484H13.1244V4.91402H10.0217Z" fill="#1F1F1F"/>
<path d="M40.6266 11.4975H41.9876V2.77344H39.3816V5.44386H36.6348V0H50.678V5.44386H47.9174V2.77344H45.3114V11.4975H46.6807V14.2654H40.6266V11.4975Z" fill="#1F1F1F"/>
<path d="M32.9712 8.9163H17.0962V5.94434H32.9712V8.9163Z" fill="#1F1F1F"/>
<path d="M118.634 6.40261C118.558 9.17311 118.257 14.9911 112.346 14.1905V11.4338C115.468 11.8605 115.608 7.83219 115.668 5.47173L115.728 2.75387H114.347V0H127V2.75664H125.658V11.4366H127V14.1932H121.018V11.4366H122.358V2.75387H118.735L118.634 6.40261Z" fill="#1F1F1F"/>
<path d="M74.4902 7.13271C74.4902 3.99042 76.0376 0 81.5119 0C86.2923 0 88.5335 3.04747 88.5335 7.13271C88.5335 11.2179 86.2923 14.2654 81.5119 14.2654C76.0376 14.2654 74.4902 10.275 74.4902 7.13271ZM85.0024 7.13271C85.0024 5.90002 84.8452 2.6234 81.5119 2.6234C79.707 2.6234 78.0403 3.56635 78.0403 7.13271C78.0403 10.6991 79.707 11.6446 81.5119 11.6446C84.8452 11.6446 85.0024 8.27057 85.0024 7.13271Z" fill="#1F1F1F"/>
<path d="M70.2163 8.9163H54.9519V5.94434H70.2163V8.9163Z" fill="#1F1F1F"/>
<path d="M108.072 8.9163H92.8076V5.94434H108.072V8.9163Z" fill="#1F1F1F"/>
</svg>
